<?xml version="1.0" encoding="utf-8"?>
<!-- Generator: Adobe Illustrator 26.3.1, SVG Export Plug-In . SVG Version: 6.00 Build 0)  -->
<svg version="1.1" id="Layer_1" xmlns="http://www.w3.org/2000/svg" xmlns:xlink="http://www.w3.org/1999/xlink" x="0px" y="0px"
	 viewBox="0 0 841.9 595.3" enable-background="new 0 0 841.9 595.3" xml:space="preserve">
<g>
	<path fill="#13110C" d="M556.1,288.2c1.8-3.3,6.7-2.3,11.3,5.2c4.6,7.5,13.2,15.9,20.3,21.6c7.1,5.8,11.6,9.4,11.5,13.5
		c0,4-2.1,9.6-24.7,15.9c-22.2,6.2-24.4,8.7-32.2,4.9c-7.8-3.8-10.1-4.8-11-7c-0.9-2.2,1.3-7,11.2-8.4c8.4-1.2,26-4.8,27.9-5.5
		c4.3-1.5,10.6-4.8-2.9-13.7C557.7,308.1,548.3,302.4,556.1,288.2z"/>
	<path fill="#13110C" d="M531.5,274.3c-12.1-5.6-29,0.5-35.1,4.7c-6.1,4.2-11.3,12.4-6.9,19.6c4.4,7.2,17.4,4.9,22.4,4.7
		c2.4-0.1,2.7,1.1,2.2,3.1c-3.6,9.6-12.7,21.4-28.2,29c-11.1,5.4-20.9,2.8-23.7,7.2c-2.8,4.4-0.4,8.1,7.3,10.3
		c7.7,2.2,20.7-3.8,30.8-10.3s21.8-15.8,31.2-29.9C540.9,298.5,543.6,279.9,531.5,274.3z M520.1,289.3c-1.2,2.2-2.3,4.1-10.3,5
		c-8,0.8-9.5-0.3-9.4-2.7c0-1.5,2.6-7.8,9.4-8.7C518.3,281.7,521.3,287.1,520.1,289.3z"/>
	<g>
		<path fill="#13110C" d="M624.8,253.4c0,0,4.1,0.3,6.3,2.6c2.1,2.3,0.5,7.1-0.1,16.3c-0.6,9.2-6.5,33.4-4.2,79.2
			c0.7,13.1,6.3,25.3,6.6,28.8c0.2,3.5-0.7,5.2-9.4,7.6c-8.7,2.4-13.5,0.6-13.8-2.2c-0.3-2.8-1.2-9.3,1.9-40.3
			c3.1-31,3.2-39.8,4-45.6C616.8,294,620.1,252,624.8,253.4z"/>
		<path fill="#13110C" d="M637.5,232.1c-0.5-1.1-1.5-1.7-2.6-1.7c-1.3,0-12.4-1.2-17.7-4.4c-0.8-0.5-1.8-1.8-1.8-2.7
			c-0.1-3.5,3.7-4.4,4.6-4.4c3.1,0,7.6,2,10.3,3.7c0.5,0.3,1.1,0.5,1.8,0.5h0c2.2,0,3.9-1.8,4.8-3.9c0.8-2,0.6-3.8-0.6-5
			c-2.9-2.8-5.8-4.5-9-5.4c-1.8-0.5-3.8-0.7-5.8-0.7c-6.1,0-11.9,2.3-15.5,6.1c-2.6,2.8-3.9,6.1-3.7,9.7c0.3,4.9,3.3,8.4,9.2,10.8
			c0.9,0.4,1.9,0.7,2.9,1c0,0,0.1,0,0.1,0c-5.5,2.9-8.4,6.2-7.9,9c0.5,2.6,2.3,5.3,5.1,5.3c1.3,0,2.6-0.6,3.8-1.8
			c2.8-2.7,8.5-5.6,12.6-6.5c4.7-1,7.7-2.3,8.8-3.8C637.7,236.9,638.4,234.1,637.5,232.1z"/>
	</g>
	<g>
		<path fill="#13110C" d="M474.8,250.7c-0.7-8.7-8.5-10.2-14.7-7.4c-7.1,3.1-7.9,12.3-4,16.1C460,263.3,475.7,261.4,474.8,250.7z"/>
		<g>
			<path fill="#13110C" d="M451,335.5c-2.4-9.3-14.7-4.1-14.7-4.1c-8.5,4.6-6.8,9.9-3.1,12.6C437.1,346.7,453.4,344.9,451,335.5z"/>
			<path fill="#13110C" d="M424.9,337.7c-1.8-10.3-12.4-4.3-12.4-4.3c-7.4,5.3-6,11-2.9,14C412.8,350.3,426.7,347.9,424.9,337.7z"/>
		</g>
		<path fill="#13110C" d="M299.1,306.7c-8.1,0.2-13,1-13.6,1.9c-2.9,4.4-0.9,21.2-8.8,42.5c-6.6,17.9-21.2,23.4-37.5,20.7
			c-17.9-2.9-22.2-23-16.6-38.1c5.8-15.8,13.5-22.5,18.9-28.7c3.6-4.1-17.1-3.4-19.5-1.2c-5.1,4.5-10.3,11.6-14.4,21.2
			c-7.9,18.5-7.6,48.6,15,59.3c27.3,12.8,52.3,1.7,62.6-15.8c10.3-17.4,11.2-38.2,12.8-41.3c0.2-0.3,1.6-0.7,4.1-1
			c27.4-3.4,156.2-4.9,159.3-4.6c3.4,0.3,8.4-6.6,10.3-15c1.9-8.5,2.7-21.3,3.7-29.6c0.9-8.3-6.9-4.2-12.2-2
			c-5.3,2.2-6.1,6.1-5.6,11.4c0.5,5.3,1.8,20.9-2.2,22.2c-4.1,1.3-13.3,2.5-14.4-1c-0.7-2.4,2.3-21.6-0.6-21.9
			c-3-0.3-10.9,0.8-12,3.1c-1.1,2.3-3.2,18.8-5.4,19.6C419.3,309.5,336,305.6,299.1,306.7z"/>
	</g>
</g>
</svg>
